<?xml version="1.0" encoding="utf-8" standalone="no"?>
<!DOCTYPE svg PUBLIC "-//W3C//DTD SVG 1.1//EN"
  "http://www.w3.org/Graphics/SVG/1.1/DTD/svg11.dtd">
<!-- Created with matplotlib (https://matplotlib.org/) -->
<svg height="325.777344pt" version="1.1" viewBox="0 0 375.164062 325.777344" width="375.164062pt" xmlns="http://www.w3.org/2000/svg" xmlns:xlink="http://www.w3.org/1999/xlink">
 <defs>
  <style type="text/css">
*{stroke-linecap:butt;stroke-linejoin:round;}
  </style>
 </defs>
 <g id="figure_1">
  <g id="patch_1">
   <path d="M 0 325.777344 
L 375.164062 325.777344 
L 375.164062 0 
L 0 0 
z
" style="fill:#ffffff;"/>
  </g>
  <g id="axes_1">
   <g id="patch_2">
    <path d="M 52.382813 195.799219 
L 331.382812 195.799219 
L 331.382812 10.999219 
L 52.382813 10.999219 
z
" style="fill:#ffffff;"/>
   </g>
   <g id="PathCollection_1">
    <path clip-path="url(#p62fc9b18a5)" d="M 238.382812 195.799219 
L 250.007813 195.799219 
L 261.632812 195.799219 
L 273.257812 195.799219 
L 284.882812 195.799219 
L 296.507812 195.799219 
L 308.132812 195.799219 
L 319.757812 195.799219 
L 331.382812 195.799219 
L 331.382812 188.099219 
L 331.382812 180.399219 
L 331.382812 172.699219 
L 331.382812 164.999219 
L 331.382812 157.299219 
L 331.382812 149.599219 
L 331.382812 141.899219 
L 331.382812 134.199219 
L 331.382812 126.499219 
L 331.382812 118.799219 
L 331.382812 111.099219 
L 331.382812 103.399219 
L 331.382812 95.699219 
L 331.382812 87.999219 
L 331.382812 80.299219 
L 331.382812 79.144219 
L 319.757812 79.144219 
L 308.132812 79.144219 
L 296.507812 79.144219 
L 284.882812 79.144219 
L 273.257812 79.144219 
L 261.632812 79.144219 
L 250.007813 79.144219 
L 238.382812 79.144219 
L 236.639063 80.299219 
L 236.639063 87.999219 
L 236.639063 95.699219 
L 236.639063 103.399219 
L 236.639063 111.099219 
L 236.639063 118.799219 
L 236.639063 126.499219 
L 236.639063 134.199219 
L 236.639063 141.899219 
L 236.639063 149.599219 
L 236.639063 157.299219 
L 236.639063 164.999219 
L 236.639063 172.699219 
L 236.639063 180.399219 
L 236.639063 188.099219 
L 236.639063 195.799219 
z
" style="fill:#ffface;"/>
    <path clip-path="url(#p62fc9b18a5)" d="M 64.007813 73.754219 
L 75.632813 73.754219 
L 87.257813 73.754219 
L 98.882813 73.754219 
L 110.507813 73.754219 
L 122.132813 73.754219 
L 133.757813 73.754219 
L 145.382813 73.754219 
L 157.007812 73.754219 
L 168.632813 73.754219 
L 180.257813 73.754219 
L 191.882812 73.754219 
L 203.507813 73.754219 
L 215.132813 73.754219 
L 226.757812 73.754219 
L 228.501563 72.599219 
L 228.501563 64.899219 
L 228.501563 57.199219 
L 228.501563 49.499219 
L 228.501563 41.799219 
L 228.501563 34.099219 
L 228.501563 26.399219 
L 228.501563 18.699219 
L 228.501563 10.999219 
L 226.757812 10.999219 
L 215.132813 10.999219 
L 203.507813 10.999219 
L 191.882812 10.999219 
L 180.257813 10.999219 
L 168.632813 10.999219 
L 157.007812 10.999219 
L 145.382813 10.999219 
L 133.757813 10.999219 
L 122.132813 10.999219 
L 110.507813 10.999219 
L 98.882813 10.999219 
L 87.257813 10.999219 
L 75.632813 10.999219 
L 64.007813 10.999219 
L 52.382813 10.999219 
L 52.382813 18.699219 
L 52.382813 26.399219 
L 52.382813 34.099219 
L 52.382813 41.799219 
L 52.382813 49.499219 
L 52.382813 57.199219 
L 52.382813 64.899219 
L 52.382813 72.599219 
L 52.382813 73.754219 
z
" style="fill:#ffface;"/>
   </g>
   <g id="PathCollection_2">
    <path clip-path="url(#p62fc9b18a5)" d="M 236.639063 188.099219 
L 236.639063 180.399219 
L 236.639063 172.699219 
L 236.639063 164.999219 
L 236.639063 157.299219 
L 236.639063 149.599219 
L 236.639063 141.899219 
L 236.639063 134.199219 
L 236.639063 126.499219 
L 236.639063 118.799219 
L 236.639063 111.099219 
L 236.639063 103.399219 
L 236.639063 95.699219 
L 236.639063 87.999219 
L 236.639063 80.299219 
L 238.382812 79.144219 
L 250.007813 79.144219 
L 261.632812 79.144219 
L 273.257812 79.144219 
L 284.882812 79.144219 
L 296.507812 79.144219 
L 308.132812 79.144219 
L 319.757812 79.144219 
L 331.382812 79.144219 
L 331.382812 77.989219 
L 319.757812 77.989219 
L 308.132812 77.989219 
L 296.507812 77.989219 
L 284.882812 77.989219 
L 273.257812 77.989219 
L 261.632812 77.989219 
L 250.007813 77.989219 
L 238.382812 77.989219 
L 234.895313 80.299219 
L 234.895313 87.999219 
L 234.895313 95.699219 
L 234.895313 103.399219 
L 234.895313 111.099219 
L 234.895313 118.799219 
L 234.895313 126.499219 
L 234.895313 134.199219 
L 234.895313 141.899219 
L 234.895313 149.599219 
L 234.895313 157.299219 
L 234.895313 164.999219 
L 234.895313 172.699219 
L 234.895313 180.399219 
L 234.895313 188.099219 
L 234.895313 195.799219 
L 236.639063 195.799219 
z
" style="fill:#fee99e;"/>
    <path clip-path="url(#p62fc9b18a5)" d="M 64.007813 74.909219 
L 75.632813 74.909219 
L 87.257813 74.909219 
L 98.882813 74.909219 
L 110.507813 74.909219 
L 122.132813 74.909219 
L 133.757813 74.909219 
L 145.382813 74.909219 
L 157.007812 74.909219 
L 168.632813 74.909219 
L 180.257813 74.909219 
L 191.882812 74.909219 
L 203.507813 74.909219 
L 215.132813 74.909219 
L 226.757812 74.909219 
L 230.245313 72.599219 
L 230.245313 64.899219 
L 230.245313 57.199219 
L 230.245313 49.499219 
L 230.245313 41.799219 
L 230.245313 34.099219 
L 230.245313 26.399219 
L 230.245313 18.699219 
L 230.245313 10.999219 
L 228.501563 10.999219 
L 228.501563 18.699219 
L 228.501563 26.399219 
L 228.501563 34.099219 
L 228.501563 41.799219 
L 228.501563 49.499219 
L 228.501563 57.199219 
L 228.501563 64.899219 
L 228.501563 72.599219 
L 226.757812 73.754219 
L 215.132813 73.754219 
L 203.507813 73.754219 
L 191.882812 73.754219 
L 180.257813 73.754219 
L 168.632813 73.754219 
L 157.007812 73.754219 
L 145.382813 73.754219 
L 133.757813 73.754219 
L 122.132813 73.754219 
L 110.507813 73.754219 
L 98.882813 73.754219 
L 87.257813 73.754219 
L 75.632813 73.754219 
L 64.007813 73.754219 
L 52.382813 73.754219 
L 52.382813 74.909219 
z
" style="fill:#fee99e;"/>
   </g>
   <g id="PathCollection_3">
    <path clip-path="url(#p62fc9b18a5)" d="M 234.895313 188.099219 
L 234.895313 180.399219 
L 234.895313 172.699219 
L 234.895313 164.999219 
L 234.895313 157.299219 
L 234.895313 149.599219 
L 234.895313 141.899219 
L 234.895313 134.199219 
L 234.895313 126.499219 
L 234.895313 118.799219 
L 234.895313 111.099219 
L 234.895313 103.399219 
L 234.895313 95.699219 
L 234.895313 87.999219 
L 234.895313 80.299219 
L 238.382812 77.989219 
L 250.007813 77.989219 
L 261.632812 77.989219 
L 273.257812 77.989219 
L 284.882812 77.989219 
L 296.507812 77.989219 
L 308.132812 77.989219 
L 319.757812 77.989219 
L 331.382812 77.989219 
L 331.382812 76.834219 
L 319.757812 76.834219 
L 308.132812 76.834219 
L 296.507812 76.834219 
L 284.882812 76.834219 
L 273.257812 76.834219 
L 261.632812 76.834219 
L 250.007813 76.834219 
L 238.382812 76.834219 
L 233.151563 80.299219 
L 233.151563 87.999219 
L 233.151563 95.699219 
L 233.151563 103.399219 
L 233.151563 111.099219 
L 233.151563 118.799219 
L 233.151563 126.499219 
L 233.151563 134.199219 
L 233.151563 141.899219 
L 233.151563 149.599219 
L 233.151563 157.299219 
L 233.151563 164.999219 
L 233.151563 172.699219 
L 233.151563 180.399219 
L 233.151563 188.099219 
L 233.151563 195.799219 
L 234.895313 195.799219 
z
" style="fill:#fec859;"/>
    <path clip-path="url(#p62fc9b18a5)" d="M 64.007813 76.064219 
L 75.632813 76.064219 
L 87.257813 76.064219 
L 98.882813 76.064219 
L 110.507813 76.064219 
L 122.132813 76.064219 
L 133.757813 76.064219 
L 145.382813 76.064219 
L 157.007812 76.064219 
L 168.632813 76.064219 
L 180.257813 76.064219 
L 191.882812 76.064219 
L 203.507813 76.064219 
L 215.132813 76.064219 
L 226.757812 76.064219 
L 231.989063 72.599219 
L 231.989063 64.899219 
L 231.989063 57.199219 
L 231.989063 49.499219 
L 231.989063 41.799219 
L 231.989063 34.099219 
L 231.989063 26.399219 
L 231.989063 18.699219 
L 231.989063 10.999219 
L 230.245313 10.999219 
L 230.245313 18.699219 
L 230.245313 26.399219 
L 230.245313 34.099219 
L 230.245313 41.799219 
L 230.245313 49.499219 
L 230.245313 57.199219 
L 230.245313 64.899219 
L 230.245313 72.599219 
L 226.757812 74.909219 
L 215.132813 74.909219 
L 203.507813 74.909219 
L 191.882812 74.909219 
L 180.257813 74.909219 
L 168.632813 74.909219 
L 157.007812 74.909219 
L 145.382813 74.909219 
L 133.757813 74.909219 
L 122.132813 74.909219 
L 110.507813 74.909219 
L 98.882813 74.909219 
L 87.257813 74.909219 
L 75.632813 74.909219 
L 64.007813 74.909219 
L 52.382813 74.909219 
L 52.382813 76.064219 
z
" style="fill:#fec859;"/>
   </g>
   <g id="PathCollection_4">
    <path clip-path="url(#p62fc9b18a5)" d="M 233.151563 188.099219 
L 233.151563 180.399219 
L 233.151563 172.699219 
L 233.151563 164.999219 
L 233.151563 157.299219 
L 233.151563 149.599219 
L 233.151563 141.899219 
L 233.151563 134.199219 
L 233.151563 126.499219 
L 233.151563 118.799219 
L 233.151563 111.099219 
L 233.151563 103.399219 
L 233.151563 95.699219 
L 233.151563 87.999219 
L 233.151563 80.299219 
L 238.382812 76.834219 
L 250.007813 76.834219 
L 261.632812 76.834219 
L 273.257812 76.834219 
L 284.882812 76.834219 
L 296.507812 76.834219 
L 308.132812 76.834219 
L 319.757812 76.834219 
L 331.382812 76.834219 
L 331.382812 75.679219 
L 319.757812 75.679219 
L 308.132812 75.679219 
L 296.507812 75.679219 
L 284.882812 75.679219 
L 273.257812 75.679219 
L 261.632812 75.679219 
L 250.007813 75.679219 
L 238.382812 75.679219 
L 233.732813 72.599219 
L 233.732813 64.899219 
L 233.732813 57.199219 
L 233.732813 49.499219 
L 233.732813 41.799219 
L 233.732813 34.099219 
L 233.732813 26.399219 
L 233.732813 18.699219 
L 233.732813 10.999219 
L 231.989063 10.999219 
L 231.989063 18.699219 
L 231.989063 26.399219 
L 231.989063 34.099219 
L 231.989063 41.799219 
L 231.989063 49.499219 
L 231.989063 57.199219 
L 231.989063 64.899219 
L 231.989063 72.599219 
L 226.757812 76.064219 
L 215.132813 76.064219 
L 203.507813 76.064219 
L 191.882812 76.064219 
L 180.257813 76.064219 
L 168.632813 76.064219 
L 157.007812 76.064219 
L 145.382813 76.064219 
L 133.757813 76.064219 
L 122.132813 76.064219 
L 110.507813 76.064219 
L 98.882813 76.064219 
L 87.257813 76.064219 
L 75.632813 76.064219 
L 64.007813 76.064219 
L 52.382813 76.064219 
L 52.382813 77.219219 
L 64.007813 77.219219 
L 75.632813 77.219219 
L 87.257813 77.219219 
L 98.882813 77.219219 
L 110.507813 77.219219 
L 122.132813 77.219219 
L 133.757813 77.219219 
L 145.382813 77.219219 
L 157.007812 77.219219 
L 168.632813 77.219219 
L 180.257813 77.219219 
L 191.882812 77.219219 
L 203.507813 77.219219 
L 215.132813 77.219219 
L 226.757812 77.219219 
L 231.407813 80.299219 
L 231.407813 87.999219 
L 231.407813 95.699219 
L 231.407813 103.399219 
L 231.407813 111.099219 
L 231.407813 118.799219 
L 231.407813 126.499219 
L 231.407813 134.199219 
L 231.407813 141.899219 
L 231.407813 149.599219 
L 231.407813 157.299219 
L 231.407813 164.999219 
L 231.407813 172.699219 
L 231.407813 180.399219 
L 231.407813 188.099219 
L 231.407813 195.799219 
L 233.151563 195.799219 
z
" style="fill:#fe9829;"/>
   </g>
   <g id="PathCollection_5">
    <path clip-path="url(#p62fc9b18a5)" d="M 231.407813 188.099219 
L 231.407813 180.399219 
L 231.407813 172.699219 
L 231.407813 164.999219 
L 231.407813 157.299219 
L 231.407813 149.599219 
L 231.407813 141.899219 
L 231.407813 134.199219 
L 231.407813 126.499219 
L 231.407813 118.799219 
L 231.407813 111.099219 
L 231.407813 103.399219 
L 231.407813 95.699219 
L 231.407813 87.999219 
L 231.407813 80.299219 
L 226.757812 77.219219 
L 215.132813 77.219219 
L 203.507813 77.219219 
L 191.882812 77.219219 
L 180.257813 77.219219 
L 168.632813 77.219219 
L 157.007812 77.219219 
L 145.382813 77.219219 
L 133.757813 77.219219 
L 122.132813 77.219219 
L 110.507813 77.219219 
L 98.882813 77.219219 
L 87.257813 77.219219 
L 75.632813 77.219219 
L 64.007813 77.219219 
L 52.382813 77.219219 
L 52.382813 78.374219 
L 64.007813 78.374219 
L 75.632813 78.374219 
L 87.257813 78.374219 
L 98.882813 78.374219 
L 110.507813 78.374219 
L 122.132813 78.374219 
L 133.757813 78.374219 
L 145.382813 78.374219 
L 157.007812 78.374219 
L 168.632813 78.374219 
L 180.257813 78.374219 
L 191.882812 78.374219 
L 203.507813 78.374219 
L 215.132813 78.374219 
L 226.757812 78.374219 
L 229.664062 80.299219 
L 229.664062 87.999219 
L 229.664062 95.699219 
L 229.664062 103.399219 
L 229.664062 111.099219 
L 229.664062 118.799219 
L 229.664062 126.499219 
L 229.664062 134.199219 
L 229.664062 141.899219 
L 229.664062 149.599219 
L 229.664062 157.299219 
L 229.664062 164.999219 
L 229.664062 172.699219 
L 229.664062 180.399219 
L 229.664062 188.099219 
L 229.664062 195.799219 
L 231.407813 195.799219 
z
" style="fill:#e76b11;"/>
    <path clip-path="url(#p62fc9b18a5)" d="M 238.382812 75.679219 
L 250.007813 75.679219 
L 261.632812 75.679219 
L 273.257812 75.679219 
L 284.882812 75.679219 
L 296.507812 75.679219 
L 308.132812 75.679219 
L 319.757812 75.679219 
L 331.382812 75.679219 
L 331.382812 74.524219 
L 319.757812 74.524219 
L 308.132812 74.524219 
L 296.507812 74.524219 
L 284.882812 74.524219 
L 273.257812 74.524219 
L 261.632812 74.524219 
L 250.007813 74.524219 
L 238.382812 74.524219 
L 235.476562 72.599219 
L 235.476562 64.899219 
L 235.476562 57.199219 
L 235.476562 49.499219 
L 235.476562 41.799219 
L 235.476562 34.099219 
L 235.476562 26.399219 
L 235.476562 18.699219 
L 235.476562 10.999219 
L 233.732813 10.999219 
L 233.732813 18.699219 
L 233.732813 26.399219 
L 233.732813 34.099219 
L 233.732813 41.799219 
L 233.732813 49.499219 
L 233.732813 57.199219 
L 233.732813 64.899219 
L 233.732813 72.599219 
z
" style="fill:#e76b11;"/>
   </g>
   <g id="PathCollection_6">
    <path clip-path="url(#p62fc9b18a5)" d="M 229.664062 188.099219 
L 229.664062 180.399219 
L 229.664062 172.699219 
L 229.664062 164.999219 
L 229.664062 157.299219 
L 229.664062 149.599219 
L 229.664062 141.899219 
L 229.664062 134.199219 
L 229.664062 126.499219 
L 229.664062 118.799219 
L 229.664062 111.099219 
L 229.664062 103.399219 
L 229.664062 95.699219 
L 229.664062 87.999219 
L 229.664062 80.299219 
L 226.757812 78.374219 
L 215.132813 78.374219 
L 203.507813 78.374219 
L 191.882812 78.374219 
L 180.257813 78.374219 
L 168.632813 78.374219 
L 157.007812 78.374219 
L 145.382813 78.374219 
L 133.757813 78.374219 
L 122.132813 78.374219 
L 110.507813 78.374219 
L 98.882813 78.374219 
L 87.257813 78.374219 
L 75.632813 78.374219 
L 64.007813 78.374219 
L 52.382813 78.374219 
L 52.382813 79.529219 
L 64.007813 79.529219 
L 75.632813 79.529219 
L 87.257813 79.529219 
L 98.882813 79.529219 
L 110.507813 79.529219 
L 122.132813 79.529219 
L 133.757813 79.529219 
L 145.382813 79.529219 
L 157.007812 79.529219 
L 168.632813 79.529219 
L 180.257813 79.529219 
L 191.882812 79.529219 
L 203.507813 79.529219 
L 215.132813 79.529219 
L 226.757812 79.529219 
L 227.920313 80.299219 
L 227.920313 87.999219 
L 227.920313 95.699219 
L 227.920313 103.399219 
L 227.920313 111.099219 
L 227.920313 118.799219 
L 227.920313 126.499219 
L 227.920313 134.199219 
L 227.920313 141.899219 
L 227.920313 149.599219 
L 227.920313 157.299219 
L 227.920313 164.999219 
L 227.920313 172.699219 
L 227.920313 180.399219 
L 227.920313 188.099219 
L 227.920313 195.799219 
L 229.664062 195.799219 
z
" style="fill:#bc4503;"/>
    <path clip-path="url(#p62fc9b18a5)" d="M 238.382812 74.524219 
L 250.007813 74.524219 
L 261.632812 74.524219 
L 273.257812 74.524219 
L 284.882812 74.524219 
L 296.507812 74.524219 
L 308.132812 74.524219 
L 319.757812 74.524219 
L 331.382812 74.524219 
L 331.382812 73.369219 
L 319.757812 73.369219 
L 308.132812 73.369219 
L 296.507812 73.369219 
L 284.882812 73.369219 
L 273.257812 73.369219 
L 261.632812 73.369219 
L 250.007813 73.369219 
L 238.382812 73.369219 
L 237.220313 72.599219 
L 237.220313 64.899219 
L 237.220313 57.199219 
L 237.220313 49.499219 
L 237.220313 41.799219 
L 237.220313 34.099219 
L 237.220313 26.399219 
L 237.220313 18.699219 
L 237.220313 10.999219 
L 235.476562 10.999219 
L 235.476562 18.699219 
L 235.476562 26.399219 
L 235.476562 34.099219 
L 235.476562 41.799219 
L 235.476562 49.499219 
L 235.476562 57.199219 
L 235.476562 64.899219 
L 235.476562 72.599219 
z
" style="fill:#bc4503;"/>
   </g>
   <g id="PathCollection_7">
    <path clip-path="url(#p62fc9b18a5)" d="M 64.007813 195.799219 
L 75.632813 195.799219 
L 87.257813 195.799219 
L 98.882813 195.799219 
L 110.507813 195.799219 
L 122.132813 195.799219 
L 133.757813 195.799219 
L 145.382813 195.799219 
L 157.007812 195.799219 
L 168.632813 195.799219 
L 180.257813 195.799219 
L 191.882812 195.799219 
L 203.507813 195.799219 
L 215.132813 195.799219 
L 226.757812 195.799219 
L 227.920313 195.799219 
L 227.920313 188.099219 
L 227.920313 180.399219 
L 227.920313 172.699219 
L 227.920313 164.999219 
L 227.920313 157.299219 
L 227.920313 149.599219 
L 227.920313 141.899219 
L 227.920313 134.199219 
L 227.920313 126.499219 
L 227.920313 118.799219 
L 227.920313 111.099219 
L 227.920313 103.399219 
L 227.920313 95.699219 
L 227.920313 87.999219 
L 227.920313 80.299219 
L 226.757812 79.529219 
L 215.132813 79.529219 
L 203.507813 79.529219 
L 191.882812 79.529219 
L 180.257813 79.529219 
L 168.632813 79.529219 
L 157.007812 79.529219 
L 145.382813 79.529219 
L 133.757813 79.529219 
L 122.132813 79.529219 
L 110.507813 79.529219 
L 98.882813 79.529219 
L 87.257813 79.529219 
L 75.632813 79.529219 
L 64.007813 79.529219 
L 52.382813 79.529219 
L 52.382813 80.299219 
L 52.382813 87.999219 
L 52.382813 95.699219 
L 52.382813 103.399219 
L 52.382813 111.099219 
L 52.382813 118.799219 
L 52.382813 126.499219 
L 52.382813 134.199219 
L 52.382813 141.899219 
L 52.382813 149.599219 
L 52.382813 157.299219 
L 52.382813 164.999219 
L 52.382813 172.699219 
L 52.382813 180.399219 
L 52.382813 188.099219 
L 52.382813 195.799219 
z
" style="fill:#832d05;"/>
    <path clip-path="url(#p62fc9b18a5)" d="M 238.382812 73.369219 
L 250.007813 73.369219 
L 261.632812 73.369219 
L 273.257812 73.369219 
L 284.882812 73.369219 
L 296.507812 73.369219 
L 308.132812 73.369219 
L 319.757812 73.369219 
L 331.382812 73.369219 
L 331.382812 72.599219 
L 331.382812 64.899219 
L 331.382812 57.199219 
L 331.382812 49.499219 
L 331.382812 41.799219 
L 331.382812 34.099219 
L 331.382812 26.399219 
L 331.382812 18.699219 
L 331.382812 10.999219 
L 319.757812 10.999219 
L 308.132812 10.999219 
L 296.507812 10.999219 
L 284.882812 10.999219 
L 273.257812 10.999219 
L 261.632812 10.999219 
L 250.007813 10.999219 
L 238.382812 10.999219 
L 237.220313 10.999219 
L 237.220313 18.699219 
L 237.220313 26.399219 
L 237.220313 34.099219 
L 237.220313 41.799219 
L 237.220313 49.499219 
L 237.220313 57.199219 
L 237.220313 64.899219 
L 237.220313 72.599219 
z
" style="fill:#832d05;"/>
   </g>
   <g id="matplotlib.axis_1">
    <g id="xtick_1">
     <g id="line2d_1">
      <defs>
       <path d="M 0 0 
L 0 3.5 
" id="m50875476dd" style="stroke:#000000;stroke-width:0.8;"/>
      </defs>
      <g>
       <use style="stroke:#000000;stroke-width:0.8;" x="52.382813" xlink:href="#m50875476dd" y="195.799219"/>
      </g>
     </g>
     <g id="text_1">
      <!-- −1.5 -->
      <defs>
       <path d="M 10.59375 35.5 
L 73.1875 35.5 
L 73.1875 27.203125 
L 10.59375 27.203125 
z
" id="DejaVuSans-8722"/>
       <path d="M 12.40625 8.296875 
L 28.515625 8.296875 
L 28.515625 63.921875 
L 10.984375 60.40625 
L 10.984375 69.390625 
L 28.421875 72.90625 
L 38.28125 72.90625 
L 38.28125 8.296875 
L 54.390625 8.296875 
L 54.390625 0 
L 12.40625 0 
z
" id="DejaVuSans-49"/>
       <path d="M 10.6875 12.40625 
L 21 12.40625 
L 21 0 
L 10.6875 0 
z
" id="DejaVuSans-46"/>
       <path d="M 10.796875 72.90625 
L 49.515625 72.90625 
L 49.515625 64.59375 
L 19.828125 64.59375 
L 19.828125 46.734375 
Q 21.96875 47.46875 24.109375 47.828125 
Q 26.265625 48.1875 28.421875 48.1875 
Q 40.625 48.1875 47.75 41.5 
Q 54.890625 34.8125 54.890625 23.390625 
Q 54.890625 11.625 47.5625 5.09375 
Q 40.234375 -1.421875 26.90625 -1.421875 
Q 22.3125 -1.421875 17.546875 -0.640625 
Q 12.796875 0.140625 7.71875 1.703125 
L 7.71875 11.625 
Q 12.109375 9.234375 16.796875 8.0625 
Q 21.484375 6.890625 26.703125 6.890625 
Q 35.15625 6.890625 40.078125 11.328125 
Q 45.015625 15.765625 45.015625 23.390625 
Q 45.015625 31 40.078125 35.4375 
Q 35.15625 39.890625 26.703125 39.890625 
Q 22.75 39.890625 18.8125 39.015625 
Q 14.890625 38.140625 10.796875 36.28125 
z
" id="DejaVuSans-53"/>
      </defs>
      <g transform="translate(40.241406 210.397656)scale(0.1 -0.1)">
       <use xlink:href="#DejaVuSans-8722"/>
       <use x="83.789062" xlink:href="#DejaVuSans-49"/>
       <use x="147.412109" xlink:href="#DejaVuSans-46"/>
       <use x="179.199219" xlink:href="#DejaVuSans-53"/>
      </g>
     </g>
    </g>
    <g id="xtick_2">
     <g id="line2d_2">
      <g>
       <use style="stroke:#000000;stroke-width:0.8;" x="92.239955" xlink:href="#m50875476dd" y="195.799219"/>
      </g>
     </g>
     <g id="text_2">
      <!-- −1.0 -->
      <defs>
       <path d="M 31.78125 66.40625 
Q 24.171875 66.40625 20.328125 58.90625 
Q 16.5 51.421875 16.5 36.375 
Q 16.5 21.390625 20.328125 13.890625 
Q 24.171875 6.390625 31.78125 6.390625 
Q 39.453125 6.390625 43.28125 13.890625 
Q 47.125 21.390625 47.125 36.375 
Q 47.125 51.421875 43.28125 58.90625 
Q 39.453125 66.40625 31.78125 66.40625 
z
M 31.78125 74.21875 
Q 44.046875 74.21875 50.515625 64.515625 
Q 56.984375 54.828125 56.984375 36.375 
Q 56.984375 17.96875 50.515625 8.265625 
Q 44.046875 -1.421875 31.78125 -1.421875 
Q 19.53125 -1.421875 13.0625 8.265625 
Q 6.59375 17.96875 6.59375 36.375 
Q 6.59375 54.828125 13.0625 64.515625 
Q 19.53125 74.21875 31.78125 74.21875 
z
" id="DejaVuSans-48"/>
      </defs>
      <g transform="translate(80.098549 210.397656)scale(0.1 -0.1)">
       <use xlink:href="#DejaVuSans-8722"/>
       <use x="83.789062" xlink:href="#DejaVuSans-49"/>
       <use x="147.412109" xlink:href="#DejaVuSans-46"/>
       <use x="179.199219" xlink:href="#DejaVuSans-48"/>
      </g>
     </g>
    </g>
    <g id="xtick_3">
     <g id="line2d_3">
      <g>
       <use style="stroke:#000000;stroke-width:0.8;" x="132.097098" xlink:href="#m50875476dd" y="195.799219"/>
      </g>
     </g>
     <g id="text_3">
      <!-- −0.5 -->
      <g transform="translate(119.955692 210.397656)scale(0.1 -0.1)">
       <use xlink:href="#DejaVuSans-8722"/>
       <use x="83.789062" xlink:href="#DejaVuSans-48"/>
       <use x="147.412109" xlink:href="#DejaVuSans-46"/>
       <use x="179.199219" xlink:href="#DejaVuSans-53"/>
      </g>
     </g>
    </g>
    <g id="xtick_4">
     <g id="line2d_4">
      <g>
       <use style="stroke:#000000;stroke-width:0.8;" x="171.954241" xlink:href="#m50875476dd" y="195.799219"/>
      </g>
     </g>
     <g id="text_4">
      <!-- 0.0 -->
      <g transform="translate(164.002679 210.397656)scale(0.1 -0.1)">
       <use xlink:href="#DejaVuSans-48"/>
       <use x="63.623047" xlink:href="#DejaVuSans-46"/>
       <use x="95.410156" xlink:href="#DejaVuSans-48"/>
      </g>
     </g>
    </g>
    <g id="xtick_5">
     <g id="line2d_5">
      <g>
       <use style="stroke:#000000;stroke-width:0.8;" x="211.811384" xlink:href="#m50875476dd" y="195.799219"/>
      </g>
     </g>
     <g id="text_5">
      <!-- 0.5 -->
      <g transform="translate(203.859821 210.397656)scale(0.1 -0.1)">
       <use xlink:href="#DejaVuSans-48"/>
       <use x="63.623047" xlink:href="#DejaVuSans-46"/>
       <use x="95.410156" xlink:href="#DejaVuSans-53"/>
      </g>
     </g>
    </g>
    <g id="xtick_6">
     <g id="line2d_6">
      <g>
       <use style="stroke:#000000;stroke-width:0.8;" x="251.668527" xlink:href="#m50875476dd" y="195.799219"/>
      </g>
     </g>
     <g id="text_6">
      <!-- 1.0 -->
      <g transform="translate(243.716964 210.397656)scale(0.1 -0.1)">
       <use xlink:href="#DejaVuSans-49"/>
       <use x="63.623047" xlink:href="#DejaVuSans-46"/>
       <use x="95.410156" xlink:href="#DejaVuSans-48"/>
      </g>
     </g>
    </g>
    <g id="xtick_7">
     <g id="line2d_7">
      <g>
       <use style="stroke:#000000;stroke-width:0.8;" x="291.52567" xlink:href="#m50875476dd" y="195.799219"/>
      </g>
     </g>
     <g id="text_7">
      <!-- 1.5 -->
      <g transform="translate(283.574107 210.397656)scale(0.1 -0.1)">
       <use xlink:href="#DejaVuSans-49"/>
       <use x="63.623047" xlink:href="#DejaVuSans-46"/>
       <use x="95.410156" xlink:href="#DejaVuSans-53"/>
      </g>
     </g>
    </g>
    <g id="xtick_8">
     <g id="line2d_8">
      <g>
       <use style="stroke:#000000;stroke-width:0.8;" x="331.382812" xlink:href="#m50875476dd" y="195.799219"/>
      </g>
     </g>
     <g id="text_8">
      <!-- 2.0 -->
      <defs>
       <path d="M 19.1875 8.296875 
L 53.609375 8.296875 
L 53.609375 0 
L 7.328125 0 
L 7.328125 8.296875 
Q 12.9375 14.109375 22.625 23.890625 
Q 32.328125 33.6875 34.8125 36.53125 
Q 39.546875 41.84375 41.421875 45.53125 
Q 43.3125 49.21875 43.3125 52.78125 
Q 43.3125 58.59375 39.234375 62.25 
Q 35.15625 65.921875 28.609375 65.921875 
Q 23.96875 65.921875 18.8125 64.3125 
Q 13.671875 62.703125 7.8125 59.421875 
L 7.8125 69.390625 
Q 13.765625 71.78125 18.9375 73 
Q 24.125 74.21875 28.421875 74.21875 
Q 39.75 74.21875 46.484375 68.546875 
Q 53.21875 62.890625 53.21875 53.421875 
Q 53.21875 48.921875 51.53125 44.890625 
Q 49.859375 40.875 45.40625 35.40625 
Q 44.1875 33.984375 37.640625 27.21875 
Q 31.109375 20.453125 19.1875 8.296875 
z
" id="DejaVuSans-50"/>
      </defs>
      <g transform="translate(323.43125 210.397656)scale(0.1 -0.1)">
       <use xlink:href="#DejaVuSans-50"/>
       <use x="63.623047" xlink:href="#DejaVuSans-46"/>
       <use x="95.410156" xlink:href="#DejaVuSans-48"/>
      </g>
     </g>
    </g>
   </g>
   <g id="matplotlib.axis_2">
    <g id="ytick_1">
     <g id="line2d_9">
      <defs>
       <path d="M 0 0 
L -3.5 0 
" id="m412503a0ec" style="stroke:#000000;stroke-width:0.8;"/>
      </defs>
      <g>
       <use style="stroke:#000000;stroke-width:0.8;" x="52.382813" xlink:href="#m412503a0ec" y="195.799219"/>
      </g>
     </g>
     <g id="text_9">
      <!-- −1.5 -->
      <g transform="translate(21.1 199.598437)scale(0.1 -0.1)">
       <use xlink:href="#DejaVuSans-8722"/>
       <use x="83.789062" xlink:href="#DejaVuSans-49"/>
       <use x="147.412109" xlink:href="#DejaVuSans-46"/>
       <use x="179.199219" xlink:href="#DejaVuSans-53"/>
      </g>
     </g>
    </g>
    <g id="ytick_2">
     <g id="line2d_10">
      <g>
       <use style="stroke:#000000;stroke-width:0.8;" x="52.382813" xlink:href="#m412503a0ec" y="169.399219"/>
      </g>
     </g>
     <g id="text_10">
      <!-- −1.0 -->
      <g transform="translate(21.1 173.198437)scale(0.1 -0.1)">
       <use xlink:href="#DejaVuSans-8722"/>
       <use x="83.789062" xlink:href="#DejaVuSans-49"/>
       <use x="147.412109" xlink:href="#DejaVuSans-46"/>
       <use x="179.199219" xlink:href="#DejaVuSans-48"/>
      </g>
     </g>
    </g>
    <g id="ytick_3">
     <g id="line2d_11">
      <g>
       <use style="stroke:#000000;stroke-width:0.8;" x="52.382813" xlink:href="#m412503a0ec" y="142.999219"/>
      </g>
     </g>
     <g id="text_11">
      <!-- −0.5 -->
      <g transform="translate(21.1 146.798437)scale(0.1 -0.1)">
       <use xlink:href="#DejaVuSans-8722"/>
       <use x="83.789062" xlink:href="#DejaVuSans-48"/>
       <use x="147.412109" xlink:href="#DejaVuSans-46"/>
       <use x="179.199219" xlink:href="#DejaVuSans-53"/>
      </g>
     </g>
    </g>
    <g id="ytick_4">
     <g id="line2d_12">
      <g>
       <use style="stroke:#000000;stroke-width:0.8;" x="52.382813" xlink:href="#m412503a0ec" y="116.599219"/>
      </g>
     </g>
     <g id="text_12">
      <!-- 0.0 -->
      <g transform="translate(29.479688 120.398437)scale(0.1 -0.1)">
       <use xlink:href="#DejaVuSans-48"/>
       <use x="63.623047" xlink:href="#DejaVuSans-46"/>
       <use x="95.410156" xlink:href="#DejaVuSans-48"/>
      </g>
     </g>
    </g>
    <g id="ytick_5">
     <g id="line2d_13">
      <g>
       <use style="stroke:#000000;stroke-width:0.8;" x="52.382813" xlink:href="#m412503a0ec" y="90.199219"/>
      </g>
     </g>
     <g id="text_13">
      <!-- 0.5 -->
      <g transform="translate(29.479688 93.998437)scale(0.1 -0.1)">
       <use xlink:href="#DejaVuSans-48"/>
       <use x="63.623047" xlink:href="#DejaVuSans-46"/>
       <use x="95.410156" xlink:href="#DejaVuSans-53"/>
      </g>
     </g>
    </g>
    <g id="ytick_6">
     <g id="line2d_14">
      <g>
       <use style="stroke:#000000;stroke-width:0.8;" x="52.382813" xlink:href="#m412503a0ec" y="63.799219"/>
      </g>
     </g>
     <g id="text_14">
      <!-- 1.0 -->
      <g transform="translate(29.479688 67.598437)scale(0.1 -0.1)">
       <use xlink:href="#DejaVuSans-49"/>
       <use x="63.623047" xlink:href="#DejaVuSans-46"/>
       <use x="95.410156" xlink:href="#DejaVuSans-48"/>
      </g>
     </g>
    </g>
    <g id="ytick_7">
     <g id="line2d_15">
      <g>
       <use style="stroke:#000000;stroke-width:0.8;" x="52.382813" xlink:href="#m412503a0ec" y="37.399219"/>
      </g>
     </g>
     <g id="text_15">
      <!-- 1.5 -->
      <g transform="translate(29.479688 41.198437)scale(0.1 -0.1)">
       <use xlink:href="#DejaVuSans-49"/>
       <use x="63.623047" xlink:href="#DejaVuSans-46"/>
       <use x="95.410156" xlink:href="#DejaVuSans-53"/>
      </g>
     </g>
    </g>
    <g id="ytick_8">
     <g id="line2d_16">
      <g>
       <use style="stroke:#000000;stroke-width:0.8;" x="52.382813" xlink:href="#m412503a0ec" y="10.999219"/>
      </g>
     </g>
     <g id="text_16">
      <!-- 2.0 -->
      <g transform="translate(29.479688 14.798437)scale(0.1 -0.1)">
       <use xlink:href="#DejaVuSans-50"/>
       <use x="63.623047" xlink:href="#DejaVuSans-46"/>
       <use x="95.410156" xlink:href="#DejaVuSans-48"/>
      </g>
     </g>
    </g>
    <g id="text_17">
     <!-- $log_{10}(t^\prime)$ -->
     <defs>
      <path d="M 18.3125 75.984375 
L 27.296875 75.984375 
L 12.5 0 
L 3.515625 0 
z
" id="DejaVuSans-Oblique-108"/>
      <path d="M 25.390625 -1.421875 
Q 15.765625 -1.421875 10.171875 4.515625 
Q 4.59375 10.453125 4.59375 20.703125 
Q 4.59375 26.65625 6.515625 32.828125 
Q 8.453125 39.015625 11.53125 43.21875 
Q 16.359375 49.75 22.3125 52.875 
Q 28.265625 56 35.796875 56 
Q 45.125 56 50.859375 50.1875 
Q 56.59375 44.390625 56.59375 35.015625 
Q 56.59375 28.515625 54.6875 22.0625 
Q 52.78125 15.625 49.703125 11.375 
Q 44.921875 4.828125 38.96875 1.703125 
Q 33.015625 -1.421875 25.390625 -1.421875 
z
M 13.921875 21 
Q 13.921875 13.578125 17.015625 9.890625 
Q 20.125 6.203125 26.421875 6.203125 
Q 35.453125 6.203125 41.375 14.078125 
Q 47.3125 21.96875 47.3125 34.078125 
Q 47.3125 41.15625 44.140625 44.765625 
Q 40.96875 48.390625 34.8125 48.390625 
Q 29.734375 48.390625 25.78125 46.015625 
Q 21.828125 43.65625 18.703125 38.8125 
Q 16.40625 35.203125 15.15625 30.5625 
Q 13.921875 25.921875 13.921875 21 
z
" id="DejaVuSans-Oblique-111"/>
      <path d="M 59.625 54.6875 
L 50.296875 6.78125 
Q 47.609375 -7.125 40.015625 -13.953125 
Q 32.421875 -20.796875 19.578125 -20.796875 
Q 14.84375 -20.796875 10.78125 -20.09375 
Q 6.734375 -19.390625 3.21875 -17.921875 
L 4.890625 -9.1875 
Q 8.203125 -11.328125 11.90625 -12.34375 
Q 15.625 -13.375 19.828125 -13.375 
Q 28.375 -13.375 33.859375 -8.703125 
Q 39.359375 -4.046875 41.109375 4.6875 
L 41.890625 8.796875 
Q 38.140625 4.5 33.15625 2.25 
Q 28.171875 0 22.40625 0 
Q 14.109375 0 9.34375 5.484375 
Q 4.59375 10.984375 4.59375 20.609375 
Q 4.59375 28.171875 7.46875 35.421875 
Q 10.359375 42.671875 15.578125 48.296875 
Q 19.046875 52 23.65625 54 
Q 28.265625 56 33.296875 56 
Q 38.8125 56 42.90625 53.4375 
Q 47.015625 50.875 49.03125 46.1875 
L 50.59375 54.6875 
z
M 46.09375 34.625 
Q 46.09375 41.265625 42.96875 44.875 
Q 39.84375 48.484375 34.078125 48.484375 
Q 30.515625 48.484375 27.296875 47.0625 
Q 24.078125 45.65625 21.78125 43.109375 
Q 18.0625 38.921875 15.984375 33.234375 
Q 13.921875 27.546875 13.921875 21.484375 
Q 13.921875 14.75 17.0625 11.125 
Q 20.21875 7.515625 26.125 7.515625 
Q 34.671875 7.515625 40.375 15.25 
Q 46.09375 23 46.09375 34.625 
z
" id="DejaVuSans-Oblique-103"/>
      <path d="M 31 75.875 
Q 24.46875 64.65625 21.28125 53.65625 
Q 18.109375 42.671875 18.109375 31.390625 
Q 18.109375 20.125 21.3125 9.0625 
Q 24.515625 -2 31 -13.1875 
L 23.1875 -13.1875 
Q 15.875 -1.703125 12.234375 9.375 
Q 8.59375 20.453125 8.59375 31.390625 
Q 8.59375 42.28125 12.203125 53.3125 
Q 15.828125 64.359375 23.1875 75.875 
z
" id="DejaVuSans-40"/>
      <path d="M 42.28125 54.6875 
L 40.921875 47.703125 
L 23 47.703125 
L 17.1875 18.015625 
Q 16.890625 16.359375 16.75 15.234375 
Q 16.609375 14.109375 16.609375 13.484375 
Q 16.609375 10.359375 18.484375 8.9375 
Q 20.359375 7.515625 24.515625 7.515625 
L 33.59375 7.515625 
L 32.078125 0 
L 23.484375 0 
Q 15.484375 0 11.546875 3.125 
Q 7.625 6.25 7.625 12.59375 
Q 7.625 13.71875 7.765625 15.0625 
Q 7.90625 16.40625 8.203125 18.015625 
L 14.015625 47.703125 
L 6.390625 47.703125 
L 7.8125 54.6875 
L 15.28125 54.6875 
L 18.3125 70.21875 
L 27.296875 70.21875 
L 24.3125 54.6875 
z
" id="DejaVuSans-Oblique-116"/>
      <path d="M 3.515625 5.421875 
Q 2.875 5.609375 2.875 6.390625 
L 15.09375 51.8125 
Q 15.671875 53.65625 17.078125 54.78125 
Q 18.5 55.90625 20.3125 55.90625 
Q 22.65625 55.90625 24.4375 54.359375 
Q 26.21875 52.828125 26.21875 50.484375 
Q 26.21875 49.46875 25.6875 48.1875 
L 7.625 4.984375 
Q 7.28125 4.296875 6.6875 4.296875 
Q 6.15625 4.296875 5 4.78125 
Q 3.859375 5.28125 3.515625 5.421875 
z
" id="Cmsy10-48"/>
      <path d="M 8.015625 75.875 
L 15.828125 75.875 
Q 23.140625 64.359375 26.78125 53.3125 
Q 30.421875 42.28125 30.421875 31.390625 
Q 30.421875 20.453125 26.78125 9.375 
Q 23.140625 -1.703125 15.828125 -13.1875 
L 8.015625 -13.1875 
Q 14.5 -2 17.703125 9.0625 
Q 20.90625 20.125 20.90625 31.390625 
Q 20.90625 42.671875 17.703125 53.65625 
Q 14.5 64.65625 8.015625 75.875 
z
" id="DejaVuSans-41"/>
     </defs>
     <g transform="translate(15 122.949219)rotate(-90)scale(0.1 -0.1)">
      <use transform="translate(0 0.584375)" xlink:href="#DejaVuSans-Oblique-108"/>
      <use transform="translate(27.783203 0.584375)" xlink:href="#DejaVuSans-Oblique-111"/>
      <use transform="translate(88.964844 0.584375)" xlink:href="#DejaVuSans-Oblique-103"/>
      <use transform="translate(152.441406 -15.821875)scale(0.7)" xlink:href="#DejaVuSans-49"/>
      <use transform="translate(196.977539 -15.821875)scale(0.7)" xlink:href="#DejaVuSans-48"/>
      <use transform="translate(244.248047 0.584375)" xlink:href="#DejaVuSans-40"/>
      <use transform="translate(283.261719 0.584375)" xlink:href="#DejaVuSans-Oblique-116"/>
      <use transform="translate(329.111224 38.865625)scale(0.7)" xlink:href="#Cmsy10-48"/>
      <use transform="translate(351.088763 0.584375)" xlink:href="#DejaVuSans-41"/>
     </g>
    </g>
   </g>
   <g id="patch_3">
    <path d="M 52.382813 195.799219 
L 52.382813 10.999219 
" style="fill:none;stroke:#000000;stroke-linecap:square;stroke-linejoin:miter;stroke-width:0.8;"/>
   </g>
   <g id="patch_4">
    <path d="M 331.382812 195.799219 
L 331.382812 10.999219 
" style="fill:none;stroke:#000000;stroke-linecap:square;stroke-linejoin:miter;stroke-width:0.8;"/>
   </g>
   <g id="patch_5">
    <path d="M 52.382813 195.799219 
L 331.382812 195.799219 
" style="fill:none;stroke:#000000;stroke-linecap:square;stroke-linejoin:miter;stroke-width:0.8;"/>
   </g>
   <g id="patch_6">
    <path d="M 52.382813 10.999219 
L 331.382812 10.999219 
" style="fill:none;stroke:#000000;stroke-linecap:square;stroke-linejoin:miter;stroke-width:0.8;"/>
   </g>
  </g>
  <g id="axes_2">
   <g id="matplotlib.axis_3">
    <g id="ytick_9">
     <g id="line2d_17">
      <defs>
       <path d="M 0 0 
L 3.5 0 
" id="m7fa39b76e2" style="stroke:#1f77b4;stroke-width:0.8;"/>
      </defs>
      <g>
       <use style="fill:#1f77b4;stroke:#1f77b4;stroke-width:0.8;" x="331.382812" xlink:href="#m7fa39b76e2" y="187.399219"/>
      </g>
     </g>
     <g id="text_18">
      <!-- 1.0 -->
      <g style="fill:#1f77b4;" transform="translate(338.382812 191.198437)scale(0.1 -0.1)">
       <use xlink:href="#DejaVuSans-49"/>
       <use x="63.623047" xlink:href="#DejaVuSans-46"/>
       <use x="95.410156" xlink:href="#DejaVuSans-48"/>
      </g>
     </g>
    </g>
    <g id="ytick_10">
     <g id="line2d_18">
      <g>
       <use style="fill:#1f77b4;stroke:#1f77b4;stroke-width:0.8;" x="331.382812" xlink:href="#m7fa39b76e2" y="153.799219"/>
      </g>
     </g>
     <g id="text_19">
      <!-- 1.2 -->
      <g style="fill:#1f77b4;" transform="translate(338.382812 157.598437)scale(0.1 -0.1)">
       <use xlink:href="#DejaVuSans-49"/>
       <use x="63.623047" xlink:href="#DejaVuSans-46"/>
       <use x="95.410156" xlink:href="#DejaVuSans-50"/>
      </g>
     </g>
    </g>
    <g id="ytick_11">
     <g id="line2d_19">
      <g>
       <use style="fill:#1f77b4;stroke:#1f77b4;stroke-width:0.8;" x="331.382812" xlink:href="#m7fa39b76e2" y="120.199219"/>
      </g>
     </g>
     <g id="text_20">
      <!-- 1.4 -->
      <defs>
       <path d="M 37.796875 64.3125 
L 12.890625 25.390625 
L 37.796875 25.390625 
z
M 35.203125 72.90625 
L 47.609375 72.90625 
L 47.609375 25.390625 
L 58.015625 25.390625 
L 58.015625 17.1875 
L 47.609375 17.1875 
L 47.609375 0 
L 37.796875 0 
L 37.796875 17.1875 
L 4.890625 17.1875 
L 4.890625 26.703125 
z
" id="DejaVuSans-52"/>
      </defs>
      <g style="fill:#1f77b4;" transform="translate(338.382812 123.998437)scale(0.1 -0.1)">
       <use xlink:href="#DejaVuSans-49"/>
       <use x="63.623047" xlink:href="#DejaVuSans-46"/>
       <use x="95.410156" xlink:href="#DejaVuSans-52"/>
      </g>
     </g>
    </g>
    <g id="ytick_12">
     <g id="line2d_20">
      <g>
       <use style="fill:#1f77b4;stroke:#1f77b4;stroke-width:0.8;" x="331.382812" xlink:href="#m7fa39b76e2" y="86.599219"/>
      </g>
     </g>
     <g id="text_21">
      <!-- 1.6 -->
      <defs>
       <path d="M 33.015625 40.375 
Q 26.375 40.375 22.484375 35.828125 
Q 18.609375 31.296875 18.609375 23.390625 
Q 18.609375 15.53125 22.484375 10.953125 
Q 26.375 6.390625 33.015625 6.390625 
Q 39.65625 6.390625 43.53125 10.953125 
Q 47.40625 15.53125 47.40625 23.390625 
Q 47.40625 31.296875 43.53125 35.828125 
Q 39.65625 40.375 33.015625 40.375 
z
M 52.59375 71.296875 
L 52.59375 62.3125 
Q 48.875 64.0625 45.09375 64.984375 
Q 41.3125 65.921875 37.59375 65.921875 
Q 27.828125 65.921875 22.671875 59.328125 
Q 17.53125 52.734375 16.796875 39.40625 
Q 19.671875 43.65625 24.015625 45.921875 
Q 28.375 48.1875 33.59375 48.1875 
Q 44.578125 48.1875 50.953125 41.515625 
Q 57.328125 34.859375 57.328125 23.390625 
Q 57.328125 12.15625 50.6875 5.359375 
Q 44.046875 -1.421875 33.015625 -1.421875 
Q 20.359375 -1.421875 13.671875 8.265625 
Q 6.984375 17.96875 6.984375 36.375 
Q 6.984375 53.65625 15.1875 63.9375 
Q 23.390625 74.21875 37.203125 74.21875 
Q 40.921875 74.21875 44.703125 73.484375 
Q 48.484375 72.75 52.59375 71.296875 
z
" id="DejaVuSans-54"/>
      </defs>
      <g style="fill:#1f77b4;" transform="translate(338.382812 90.398437)scale(0.1 -0.1)">
       <use xlink:href="#DejaVuSans-49"/>
       <use x="63.623047" xlink:href="#DejaVuSans-46"/>
       <use x="95.410156" xlink:href="#DejaVuSans-54"/>
      </g>
     </g>
    </g>
    <g id="ytick_13">
     <g id="line2d_21">
      <g>
       <use style="fill:#1f77b4;stroke:#1f77b4;stroke-width:0.8;" x="331.382812" xlink:href="#m7fa39b76e2" y="52.999219"/>
      </g>
     </g>
     <g id="text_22">
      <!-- 1.8 -->
      <defs>
       <path d="M 31.78125 34.625 
Q 24.75 34.625 20.71875 30.859375 
Q 16.703125 27.09375 16.703125 20.515625 
Q 16.703125 13.921875 20.71875 10.15625 
Q 24.75 6.390625 31.78125 6.390625 
Q 38.8125 6.390625 42.859375 10.171875 
Q 46.921875 13.96875 46.921875 20.515625 
Q 46.921875 27.09375 42.890625 30.859375 
Q 38.875 34.625 31.78125 34.625 
z
M 21.921875 38.8125 
Q 15.578125 40.375 12.03125 44.71875 
Q 8.5 49.078125 8.5 55.328125 
Q 8.5 64.0625 14.71875 69.140625 
Q 20.953125 74.21875 31.78125 74.21875 
Q 42.671875 74.21875 48.875 69.140625 
Q 55.078125 64.0625 55.078125 55.328125 
Q 55.078125 49.078125 51.53125 44.71875 
Q 48 40.375 41.703125 38.8125 
Q 48.828125 37.15625 52.796875 32.3125 
Q 56.78125 27.484375 56.78125 20.515625 
Q 56.78125 9.90625 50.3125 4.234375 
Q 43.84375 -1.421875 31.78125 -1.421875 
Q 19.734375 -1.421875 13.25 4.234375 
Q 6.78125 9.90625 6.78125 20.515625 
Q 6.78125 27.484375 10.78125 32.3125 
Q 14.796875 37.15625 21.921875 38.8125 
z
M 18.3125 54.390625 
Q 18.3125 48.734375 21.84375 45.5625 
Q 25.390625 42.390625 31.78125 42.390625 
Q 38.140625 42.390625 41.71875 45.5625 
Q 45.3125 48.734375 45.3125 54.390625 
Q 45.3125 60.0625 41.71875 63.234375 
Q 38.140625 66.40625 31.78125 66.40625 
Q 25.390625 66.40625 21.84375 63.234375 
Q 18.3125 60.0625 18.3125 54.390625 
z
" id="DejaVuSans-56"/>
      </defs>
      <g style="fill:#1f77b4;" transform="translate(338.382812 56.798437)scale(0.1 -0.1)">
       <use xlink:href="#DejaVuSans-49"/>
       <use x="63.623047" xlink:href="#DejaVuSans-46"/>
       <use x="95.410156" xlink:href="#DejaVuSans-56"/>
      </g>
     </g>
    </g>
    <g id="ytick_14">
     <g id="line2d_22">
      <g>
       <use style="fill:#1f77b4;stroke:#1f77b4;stroke-width:0.8;" x="331.382812" xlink:href="#m7fa39b76e2" y="19.399219"/>
      </g>
     </g>
     <g id="text_23">
      <!-- 2.0 -->
      <g style="fill:#1f77b4;" transform="translate(338.382812 23.198437)scale(0.1 -0.1)">
       <use xlink:href="#DejaVuSans-50"/>
       <use x="63.623047" xlink:href="#DejaVuSans-46"/>
       <use x="95.410156" xlink:href="#DejaVuSans-48"/>
      </g>
     </g>
    </g>
    <g id="text_24">
     <!-- Number of clusters -->
     <defs>
      <path d="M 9.8125 72.90625 
L 23.09375 72.90625 
L 55.421875 11.921875 
L 55.421875 72.90625 
L 64.984375 72.90625 
L 64.984375 0 
L 51.703125 0 
L 19.390625 60.984375 
L 19.390625 0 
L 9.8125 0 
z
" id="DejaVuSans-78"/>
      <path d="M 8.5 21.578125 
L 8.5 54.6875 
L 17.484375 54.6875 
L 17.484375 21.921875 
Q 17.484375 14.15625 20.5 10.265625 
Q 23.53125 6.390625 29.59375 6.390625 
Q 36.859375 6.390625 41.078125 11.03125 
Q 45.3125 15.671875 45.3125 23.6875 
L 45.3125 54.6875 
L 54.296875 54.6875 
L 54.296875 0 
L 45.3125 0 
L 45.3125 8.40625 
Q 42.046875 3.421875 37.71875 1 
Q 33.40625 -1.421875 27.6875 -1.421875 
Q 18.265625 -1.421875 13.375 4.4375 
Q 8.5 10.296875 8.5 21.578125 
z
M 31.109375 56 
z
" id="DejaVuSans-117"/>
      <path d="M 52 44.1875 
Q 55.375 50.25 60.0625 53.125 
Q 64.75 56 71.09375 56 
Q 79.640625 56 84.28125 50.015625 
Q 88.921875 44.046875 88.921875 33.015625 
L 88.921875 0 
L 79.890625 0 
L 79.890625 32.71875 
Q 79.890625 40.578125 77.09375 44.375 
Q 74.3125 48.1875 68.609375 48.1875 
Q 61.625 48.1875 57.5625 43.546875 
Q 53.515625 38.921875 53.515625 30.90625 
L 53.515625 0 
L 44.484375 0 
L 44.484375 32.71875 
Q 44.484375 40.625 41.703125 44.40625 
Q 38.921875 48.1875 33.109375 48.1875 
Q 26.21875 48.1875 22.15625 43.53125 
Q 18.109375 38.875 18.109375 30.90625 
L 18.109375 0 
L 9.078125 0 
L 9.078125 54.6875 
L 18.109375 54.6875 
L 18.109375 46.1875 
Q 21.1875 51.21875 25.484375 53.609375 
Q 29.78125 56 35.6875 56 
Q 41.65625 56 45.828125 52.96875 
Q 50 49.953125 52 44.1875 
z
" id="DejaVuSans-109"/>
      <path d="M 48.6875 27.296875 
Q 48.6875 37.203125 44.609375 42.84375 
Q 40.53125 48.484375 33.40625 48.484375 
Q 26.265625 48.484375 22.1875 42.84375 
Q 18.109375 37.203125 18.109375 27.296875 
Q 18.109375 17.390625 22.1875 11.75 
Q 26.265625 6.109375 33.40625 6.109375 
Q 40.53125 6.109375 44.609375 11.75 
Q 48.6875 17.390625 48.6875 27.296875 
z
M 18.109375 46.390625 
Q 20.953125 51.265625 25.265625 53.625 
Q 29.59375 56 35.59375 56 
Q 45.5625 56 51.78125 48.09375 
Q 58.015625 40.1875 58.015625 27.296875 
Q 58.015625 14.40625 51.78125 6.484375 
Q 45.5625 -1.421875 35.59375 -1.421875 
Q 29.59375 -1.421875 25.265625 0.953125 
Q 20.953125 3.328125 18.109375 8.203125 
L 18.109375 0 
L 9.078125 0 
L 9.078125 75.984375 
L 18.109375 75.984375 
z
" id="DejaVuSans-98"/>
      <path d="M 56.203125 29.59375 
L 56.203125 25.203125 
L 14.890625 25.203125 
Q 15.484375 15.921875 20.484375 11.0625 
Q 25.484375 6.203125 34.421875 6.203125 
Q 39.59375 6.203125 44.453125 7.46875 
Q 49.3125 8.734375 54.109375 11.28125 
L 54.109375 2.78125 
Q 49.265625 0.734375 44.1875 -0.34375 
Q 39.109375 -1.421875 33.890625 -1.421875 
Q 20.796875 -1.421875 13.15625 6.1875 
Q 5.515625 13.8125 5.515625 26.8125 
Q 5.515625 40.234375 12.765625 48.109375 
Q 20.015625 56 32.328125 56 
Q 43.359375 56 49.78125 48.890625 
Q 56.203125 41.796875 56.203125 29.59375 
z
M 47.21875 32.234375 
Q 47.125 39.59375 43.09375 43.984375 
Q 39.0625 48.390625 32.421875 48.390625 
Q 24.90625 48.390625 20.390625 44.140625 
Q 15.875 39.890625 15.1875 32.171875 
z
" id="DejaVuSans-101"/>
      <path d="M 41.109375 46.296875 
Q 39.59375 47.171875 37.8125 47.578125 
Q 36.03125 48 33.890625 48 
Q 26.265625 48 22.1875 43.046875 
Q 18.109375 38.09375 18.109375 28.8125 
L 18.109375 0 
L 9.078125 0 
L 9.078125 54.6875 
L 18.109375 54.6875 
L 18.109375 46.1875 
Q 20.953125 51.171875 25.484375 53.578125 
Q 30.03125 56 36.53125 56 
Q 37.453125 56 38.578125 55.875 
Q 39.703125 55.765625 41.0625 55.515625 
z
" id="DejaVuSans-114"/>
      <path id="DejaVuSans-32"/>
      <path d="M 30.609375 48.390625 
Q 23.390625 48.390625 19.1875 42.75 
Q 14.984375 37.109375 14.984375 27.296875 
Q 14.984375 17.484375 19.15625 11.84375 
Q 23.34375 6.203125 30.609375 6.203125 
Q 37.796875 6.203125 41.984375 11.859375 
Q 46.1875 17.53125 46.1875 27.296875 
Q 46.1875 37.015625 41.984375 42.703125 
Q 37.796875 48.390625 30.609375 48.390625 
z
M 30.609375 56 
Q 42.328125 56 49.015625 48.375 
Q 55.71875 40.765625 55.71875 27.296875 
Q 55.71875 13.875 49.015625 6.21875 
Q 42.328125 -1.421875 30.609375 -1.421875 
Q 18.84375 -1.421875 12.171875 6.21875 
Q 5.515625 13.875 5.515625 27.296875 
Q 5.515625 40.765625 12.171875 48.375 
Q 18.84375 56 30.609375 56 
z
" id="DejaVuSans-111"/>
      <path d="M 37.109375 75.984375 
L 37.109375 68.5 
L 28.515625 68.5 
Q 23.6875 68.5 21.796875 66.546875 
Q 19.921875 64.59375 19.921875 59.515625 
L 19.921875 54.6875 
L 34.71875 54.6875 
L 34.71875 47.703125 
L 19.921875 47.703125 
L 19.921875 0 
L 10.890625 0 
L 10.890625 47.703125 
L 2.296875 47.703125 
L 2.296875 54.6875 
L 10.890625 54.6875 
L 10.890625 58.5 
Q 10.890625 67.625 15.140625 71.796875 
Q 19.390625 75.984375 28.609375 75.984375 
z
" id="DejaVuSans-102"/>
      <path d="M 48.78125 52.59375 
L 48.78125 44.1875 
Q 44.96875 46.296875 41.140625 47.34375 
Q 37.3125 48.390625 33.40625 48.390625 
Q 24.65625 48.390625 19.8125 42.84375 
Q 14.984375 37.3125 14.984375 27.296875 
Q 14.984375 17.28125 19.8125 11.734375 
Q 24.65625 6.203125 33.40625 6.203125 
Q 37.3125 6.203125 41.140625 7.25 
Q 44.96875 8.296875 48.78125 10.40625 
L 48.78125 2.09375 
Q 45.015625 0.34375 40.984375 -0.53125 
Q 36.96875 -1.421875 32.421875 -1.421875 
Q 20.0625 -1.421875 12.78125 6.34375 
Q 5.515625 14.109375 5.515625 27.296875 
Q 5.515625 40.671875 12.859375 48.328125 
Q 20.21875 56 33.015625 56 
Q 37.15625 56 41.109375 55.140625 
Q 45.0625 54.296875 48.78125 52.59375 
z
" id="DejaVuSans-99"/>
      <path d="M 9.421875 75.984375 
L 18.40625 75.984375 
L 18.40625 0 
L 9.421875 0 
z
" id="DejaVuSans-108"/>
      <path d="M 44.28125 53.078125 
L 44.28125 44.578125 
Q 40.484375 46.53125 36.375 47.5 
Q 32.28125 48.484375 27.875 48.484375 
Q 21.1875 48.484375 17.84375 46.4375 
Q 14.5 44.390625 14.5 40.28125 
Q 14.5 37.15625 16.890625 35.375 
Q 19.28125 33.59375 26.515625 31.984375 
L 29.59375 31.296875 
Q 39.15625 29.25 43.1875 25.515625 
Q 47.21875 21.78125 47.21875 15.09375 
Q 47.21875 7.46875 41.1875 3.015625 
Q 35.15625 -1.421875 24.609375 -1.421875 
Q 20.21875 -1.421875 15.453125 -0.5625 
Q 10.6875 0.296875 5.421875 2 
L 5.421875 11.28125 
Q 10.40625 8.6875 15.234375 7.390625 
Q 20.0625 6.109375 24.8125 6.109375 
Q 31.15625 6.109375 34.5625 8.28125 
Q 37.984375 10.453125 37.984375 14.40625 
Q 37.984375 18.0625 35.515625 20.015625 
Q 33.0625 21.96875 24.703125 23.78125 
L 21.578125 24.515625 
Q 13.234375 26.265625 9.515625 29.90625 
Q 5.8125 33.546875 5.8125 39.890625 
Q 5.8125 47.609375 11.28125 51.796875 
Q 16.75 56 26.8125 56 
Q 31.78125 56 36.171875 55.265625 
Q 40.578125 54.546875 44.28125 53.078125 
z
" id="DejaVuSans-115"/>
      <path d="M 18.3125 70.21875 
L 18.3125 54.6875 
L 36.8125 54.6875 
L 36.8125 47.703125 
L 18.3125 47.703125 
L 18.3125 18.015625 
Q 18.3125 11.328125 20.140625 9.421875 
Q 21.96875 7.515625 27.59375 7.515625 
L 36.8125 7.515625 
L 36.8125 0 
L 27.59375 0 
Q 17.1875 0 13.234375 3.875 
Q 9.28125 7.765625 9.28125 18.015625 
L 9.28125 47.703125 
L 2.6875 47.703125 
L 2.6875 54.6875 
L 9.28125 54.6875 
L 9.28125 70.21875 
z
" id="DejaVuSans-116"/>
     </defs>
     <g style="fill:#1f77b4;" transform="translate(365.884375 151.091406)rotate(-90)scale(0.1 -0.1)">
      <use xlink:href="#DejaVuSans-78"/>
      <use x="74.804688" xlink:href="#DejaVuSans-117"/>
      <use x="138.183594" xlink:href="#DejaVuSans-109"/>
      <use x="235.595703" xlink:href="#DejaVuSans-98"/>
      <use x="299.072266" xlink:href="#DejaVuSans-101"/>
      <use x="360.595703" xlink:href="#DejaVuSans-114"/>
      <use x="401.708984" xlink:href="#DejaVuSans-32"/>
      <use x="433.496094" xlink:href="#DejaVuSans-111"/>
      <use x="494.677734" xlink:href="#DejaVuSans-102"/>
      <use x="529.882812" xlink:href="#DejaVuSans-32"/>
      <use x="561.669922" xlink:href="#DejaVuSans-99"/>
      <use x="616.650391" xlink:href="#DejaVuSans-108"/>
      <use x="644.433594" xlink:href="#DejaVuSans-117"/>
      <use x="707.8125" xlink:href="#DejaVuSans-115"/>
      <use x="759.912109" xlink:href="#DejaVuSans-116"/>
      <use x="799.121094" xlink:href="#DejaVuSans-101"/>
      <use x="860.644531" xlink:href="#DejaVuSans-114"/>
      <use x="901.757812" xlink:href="#DejaVuSans-115"/>
     </g>
    </g>
   </g>
   <g id="line2d_23">
    <path clip-path="url(#p62fc9b18a5)" d="M 52.382813 19.399219 
L 64.007813 19.399219 
L 75.632813 19.399219 
L 87.257813 19.399219 
L 98.882813 19.399219 
L 110.507813 19.399219 
L 122.132813 19.399219 
L 133.757813 19.399219 
L 145.382813 19.399219 
L 157.007812 19.399219 
L 168.632813 19.399219 
L 180.257813 19.399219 
L 191.882812 19.399219 
L 203.507813 19.399219 
L 215.132813 19.399219 
L 226.757812 19.399219 
L 238.382812 187.399219 
L 250.007813 187.399219 
L 261.632812 187.399219 
L 273.257812 187.399219 
L 284.882812 187.399219 
L 296.507812 187.399219 
L 308.132812 187.399219 
L 319.757812 187.399219 
L 331.382812 187.399219 
" style="fill:none;stroke:#1f77b4;stroke-linecap:square;stroke-width:2;"/>
   </g>
   <g id="patch_7">
    <path d="M 52.382813 195.799219 
L 52.382813 10.999219 
" style="fill:none;stroke:#000000;stroke-linecap:square;stroke-linejoin:miter;stroke-width:0.8;"/>
   </g>
   <g id="patch_8">
    <path d="M 331.382812 195.799219 
L 331.382812 10.999219 
" style="fill:none;stroke:#000000;stroke-linecap:square;stroke-linejoin:miter;stroke-width:0.8;"/>
   </g>
   <g id="patch_9">
    <path d="M 52.382813 195.799219 
L 331.382812 195.799219 
" style="fill:none;stroke:#000000;stroke-linecap:square;stroke-linejoin:miter;stroke-width:0.8;"/>
   </g>
   <g id="patch_10">
    <path d="M 52.382813 10.999219 
L 331.382812 10.999219 
" style="fill:none;stroke:#000000;stroke-linecap:square;stroke-linejoin:miter;stroke-width:0.8;"/>
   </g>
  </g>
  <g id="axes_3">
   <g id="patch_11">
    <path d="M 52.382813 288.199219 
L 331.382812 288.199219 
L 331.382812 195.799219 
L 52.382813 195.799219 
z
" style="fill:#ffffff;"/>
   </g>
   <g id="matplotlib.axis_4">
    <g id="xtick_9">
     <g id="line2d_24">
      <g>
       <use style="stroke:#000000;stroke-width:0.8;" x="52.382813" xlink:href="#m50875476dd" y="288.199219"/>
      </g>
     </g>
     <g id="text_25">
      <!-- −1.5 -->
      <g transform="translate(40.241406 302.797656)scale(0.1 -0.1)">
       <use xlink:href="#DejaVuSans-8722"/>
       <use x="83.789062" xlink:href="#DejaVuSans-49"/>
       <use x="147.412109" xlink:href="#DejaVuSans-46"/>
       <use x="179.199219" xlink:href="#DejaVuSans-53"/>
      </g>
     </g>
    </g>
    <g id="xtick_10">
     <g id="line2d_25">
      <g>
       <use style="stroke:#000000;stroke-width:0.8;" x="92.239955" xlink:href="#m50875476dd" y="288.199219"/>
      </g>
     </g>
     <g id="text_26">
      <!-- −1.0 -->
      <g transform="translate(80.098549 302.797656)scale(0.1 -0.1)">
       <use xlink:href="#DejaVuSans-8722"/>
       <use x="83.789062" xlink:href="#DejaVuSans-49"/>
       <use x="147.412109" xlink:href="#DejaVuSans-46"/>
       <use x="179.199219" xlink:href="#DejaVuSans-48"/>
      </g>
     </g>
    </g>
    <g id="xtick_11">
     <g id="line2d_26">
      <g>
       <use style="stroke:#000000;stroke-width:0.8;" x="132.097098" xlink:href="#m50875476dd" y="288.199219"/>
      </g>
     </g>
     <g id="text_27">
      <!-- −0.5 -->
      <g transform="translate(119.955692 302.797656)scale(0.1 -0.1)">
       <use xlink:href="#DejaVuSans-8722"/>
       <use x="83.789062" xlink:href="#DejaVuSans-48"/>
       <use x="147.412109" xlink:href="#DejaVuSans-46"/>
       <use x="179.199219" xlink:href="#DejaVuSans-53"/>
      </g>
     </g>
    </g>
    <g id="xtick_12">
     <g id="line2d_27">
      <g>
       <use style="stroke:#000000;stroke-width:0.8;" x="171.954241" xlink:href="#m50875476dd" y="288.199219"/>
      </g>
     </g>
     <g id="text_28">
      <!-- 0.0 -->
      <g transform="translate(164.002679 302.797656)scale(0.1 -0.1)">
       <use xlink:href="#DejaVuSans-48"/>
       <use x="63.623047" xlink:href="#DejaVuSans-46"/>
       <use x="95.410156" xlink:href="#DejaVuSans-48"/>
      </g>
     </g>
    </g>
    <g id="xtick_13">
     <g id="line2d_28">
      <g>
       <use style="stroke:#000000;stroke-width:0.8;" x="211.811384" xlink:href="#m50875476dd" y="288.199219"/>
      </g>
     </g>
     <g id="text_29">
      <!-- 0.5 -->
      <g transform="translate(203.859821 302.797656)scale(0.1 -0.1)">
       <use xlink:href="#DejaVuSans-48"/>
       <use x="63.623047" xlink:href="#DejaVuSans-46"/>
       <use x="95.410156" xlink:href="#DejaVuSans-53"/>
      </g>
     </g>
    </g>
    <g id="xtick_14">
     <g id="line2d_29">
      <g>
       <use style="stroke:#000000;stroke-width:0.8;" x="251.668527" xlink:href="#m50875476dd" y="288.199219"/>
      </g>
     </g>
     <g id="text_30">
      <!-- 1.0 -->
      <g transform="translate(243.716964 302.797656)scale(0.1 -0.1)">
       <use xlink:href="#DejaVuSans-49"/>
       <use x="63.623047" xlink:href="#DejaVuSans-46"/>
       <use x="95.410156" xlink:href="#DejaVuSans-48"/>
      </g>
     </g>
    </g>
    <g id="xtick_15">
     <g id="line2d_30">
      <g>
       <use style="stroke:#000000;stroke-width:0.8;" x="291.52567" xlink:href="#m50875476dd" y="288.199219"/>
      </g>
     </g>
     <g id="text_31">
      <!-- 1.5 -->
      <g transform="translate(283.574107 302.797656)scale(0.1 -0.1)">
       <use xlink:href="#DejaVuSans-49"/>
       <use x="63.623047" xlink:href="#DejaVuSans-46"/>
       <use x="95.410156" xlink:href="#DejaVuSans-53"/>
      </g>
     </g>
    </g>
    <g id="xtick_16">
     <g id="line2d_31">
      <g>
       <use style="stroke:#000000;stroke-width:0.8;" x="331.382812" xlink:href="#m50875476dd" y="288.199219"/>
      </g>
     </g>
     <g id="text_32">
      <!-- 2.0 -->
      <g transform="translate(323.43125 302.797656)scale(0.1 -0.1)">
       <use xlink:href="#DejaVuSans-50"/>
       <use x="63.623047" xlink:href="#DejaVuSans-46"/>
       <use x="95.410156" xlink:href="#DejaVuSans-48"/>
      </g>
     </g>
    </g>
    <g id="text_33">
     <!-- $log_{10}(t)$ -->
     <g transform="translate(173.782813 316.477344)scale(0.1 -0.1)">
      <use transform="translate(0 0.015625)" xlink:href="#DejaVuSans-Oblique-108"/>
      <use transform="translate(27.783203 0.015625)" xlink:href="#DejaVuSans-Oblique-111"/>
      <use transform="translate(88.964844 0.015625)" xlink:href="#DejaVuSans-Oblique-103"/>
      <use transform="translate(152.441406 -16.390625)scale(0.7)" xlink:href="#DejaVuSans-49"/>
      <use transform="translate(196.977539 -16.390625)scale(0.7)" xlink:href="#DejaVuSans-48"/>
      <use transform="translate(244.248047 0.015625)" xlink:href="#DejaVuSans-40"/>
      <use transform="translate(283.261719 0.015625)" xlink:href="#DejaVuSans-Oblique-116"/>
      <use transform="translate(322.470703 0.015625)" xlink:href="#DejaVuSans-41"/>
     </g>
    </g>
   </g>
   <g id="matplotlib.axis_5">
    <g id="ytick_15">
     <g id="line2d_32">
      <defs>
       <path d="M 0 0 
L -3.5 0 
" id="m3db82db3ee" style="stroke:#2ca02c;stroke-width:0.8;"/>
      </defs>
      <g>
       <use style="fill:#2ca02c;stroke:#2ca02c;stroke-width:0.8;" x="52.382813" xlink:href="#m3db82db3ee" y="267.958078"/>
      </g>
     </g>
     <g id="text_34">
      <!-- 0.85 -->
      <g style="fill:#2ca02c;" transform="translate(23.117188 271.757297)scale(0.1 -0.1)">
       <use xlink:href="#DejaVuSans-48"/>
       <use x="63.623047" xlink:href="#DejaVuSans-46"/>
       <use x="95.410156" xlink:href="#DejaVuSans-56"/>
       <use x="159.033203" xlink:href="#DejaVuSans-53"/>
      </g>
     </g>
    </g>
    <g id="ytick_16">
     <g id="line2d_33">
      <g>
       <use style="fill:#2ca02c;stroke:#2ca02c;stroke-width:0.8;" x="52.382813" xlink:href="#m3db82db3ee" y="244.78674"/>
      </g>
     </g>
     <g id="text_35">
      <!-- 0.90 -->
      <defs>
       <path d="M 10.984375 1.515625 
L 10.984375 10.5 
Q 14.703125 8.734375 18.5 7.8125 
Q 22.3125 6.890625 25.984375 6.890625 
Q 35.75 6.890625 40.890625 13.453125 
Q 46.046875 20.015625 46.78125 33.40625 
Q 43.953125 29.203125 39.59375 26.953125 
Q 35.25 24.703125 29.984375 24.703125 
Q 19.046875 24.703125 12.671875 31.3125 
Q 6.296875 37.9375 6.296875 49.421875 
Q 6.296875 60.640625 12.9375 67.421875 
Q 19.578125 74.21875 30.609375 74.21875 
Q 43.265625 74.21875 49.921875 64.515625 
Q 56.59375 54.828125 56.59375 36.375 
Q 56.59375 19.140625 48.40625 8.859375 
Q 40.234375 -1.421875 26.421875 -1.421875 
Q 22.703125 -1.421875 18.890625 -0.6875 
Q 15.09375 0.046875 10.984375 1.515625 
z
M 30.609375 32.421875 
Q 37.25 32.421875 41.125 36.953125 
Q 45.015625 41.5 45.015625 49.421875 
Q 45.015625 57.28125 41.125 61.84375 
Q 37.25 66.40625 30.609375 66.40625 
Q 23.96875 66.40625 20.09375 61.84375 
Q 16.21875 57.28125 16.21875 49.421875 
Q 16.21875 41.5 20.09375 36.953125 
Q 23.96875 32.421875 30.609375 32.421875 
z
" id="DejaVuSans-57"/>
      </defs>
      <g style="fill:#2ca02c;" transform="translate(23.117188 248.585958)scale(0.1 -0.1)">
       <use xlink:href="#DejaVuSans-48"/>
       <use x="63.623047" xlink:href="#DejaVuSans-46"/>
       <use x="95.410156" xlink:href="#DejaVuSans-57"/>
       <use x="159.033203" xlink:href="#DejaVuSans-48"/>
      </g>
     </g>
    </g>
    <g id="ytick_17">
     <g id="line2d_34">
      <g>
       <use style="fill:#2ca02c;stroke:#2ca02c;stroke-width:0.8;" x="52.382813" xlink:href="#m3db82db3ee" y="221.615401"/>
      </g>
     </g>
     <g id="text_36">
      <!-- 0.95 -->
      <g style="fill:#2ca02c;" transform="translate(23.117188 225.41462)scale(0.1 -0.1)">
       <use xlink:href="#DejaVuSans-48"/>
       <use x="63.623047" xlink:href="#DejaVuSans-46"/>
       <use x="95.410156" xlink:href="#DejaVuSans-57"/>
       <use x="159.033203" xlink:href="#DejaVuSans-53"/>
      </g>
     </g>
    </g>
    <g id="ytick_18">
     <g id="line2d_35">
      <g>
       <use style="fill:#2ca02c;stroke:#2ca02c;stroke-width:0.8;" x="52.382813" xlink:href="#m3db82db3ee" y="198.444062"/>
      </g>
     </g>
     <g id="text_37">
      <!-- 1.00 -->
      <g style="fill:#2ca02c;" transform="translate(23.117188 202.243281)scale(0.1 -0.1)">
       <use xlink:href="#DejaVuSans-49"/>
       <use x="63.623047" xlink:href="#DejaVuSans-46"/>
       <use x="95.410156" xlink:href="#DejaVuSans-48"/>
       <use x="159.033203" xlink:href="#DejaVuSans-48"/>
      </g>
     </g>
    </g>
    <g id="text_38">
     <!-- Modularity -->
     <defs>
      <path d="M 9.8125 72.90625 
L 24.515625 72.90625 
L 43.109375 23.296875 
L 61.8125 72.90625 
L 76.515625 72.90625 
L 76.515625 0 
L 66.890625 0 
L 66.890625 64.015625 
L 48.09375 14.015625 
L 38.1875 14.015625 
L 19.390625 64.015625 
L 19.390625 0 
L 9.8125 0 
z
" id="DejaVuSans-77"/>
      <path d="M 45.40625 46.390625 
L 45.40625 75.984375 
L 54.390625 75.984375 
L 54.390625 0 
L 45.40625 0 
L 45.40625 8.203125 
Q 42.578125 3.328125 38.25 0.953125 
Q 33.9375 -1.421875 27.875 -1.421875 
Q 17.96875 -1.421875 11.734375 6.484375 
Q 5.515625 14.40625 5.515625 27.296875 
Q 5.515625 40.1875 11.734375 48.09375 
Q 17.96875 56 27.875 56 
Q 33.9375 56 38.25 53.625 
Q 42.578125 51.265625 45.40625 46.390625 
z
M 14.796875 27.296875 
Q 14.796875 17.390625 18.875 11.75 
Q 22.953125 6.109375 30.078125 6.109375 
Q 37.203125 6.109375 41.296875 11.75 
Q 45.40625 17.390625 45.40625 27.296875 
Q 45.40625 37.203125 41.296875 42.84375 
Q 37.203125 48.484375 30.078125 48.484375 
Q 22.953125 48.484375 18.875 42.84375 
Q 14.796875 37.203125 14.796875 27.296875 
z
" id="DejaVuSans-100"/>
      <path d="M 34.28125 27.484375 
Q 23.390625 27.484375 19.1875 25 
Q 14.984375 22.515625 14.984375 16.5 
Q 14.984375 11.71875 18.140625 8.90625 
Q 21.296875 6.109375 26.703125 6.109375 
Q 34.1875 6.109375 38.703125 11.40625 
Q 43.21875 16.703125 43.21875 25.484375 
L 43.21875 27.484375 
z
M 52.203125 31.203125 
L 52.203125 0 
L 43.21875 0 
L 43.21875 8.296875 
Q 40.140625 3.328125 35.546875 0.953125 
Q 30.953125 -1.421875 24.3125 -1.421875 
Q 15.921875 -1.421875 10.953125 3.296875 
Q 6 8.015625 6 15.921875 
Q 6 25.140625 12.171875 29.828125 
Q 18.359375 34.515625 30.609375 34.515625 
L 43.21875 34.515625 
L 43.21875 35.40625 
Q 43.21875 41.609375 39.140625 45 
Q 35.0625 48.390625 27.6875 48.390625 
Q 23 48.390625 18.546875 47.265625 
Q 14.109375 46.140625 10.015625 43.890625 
L 10.015625 52.203125 
Q 14.9375 54.109375 19.578125 55.046875 
Q 24.21875 56 28.609375 56 
Q 40.484375 56 46.34375 49.84375 
Q 52.203125 43.703125 52.203125 31.203125 
z
" id="DejaVuSans-97"/>
      <path d="M 9.421875 54.6875 
L 18.40625 54.6875 
L 18.40625 0 
L 9.421875 0 
z
M 9.421875 75.984375 
L 18.40625 75.984375 
L 18.40625 64.59375 
L 9.421875 64.59375 
z
" id="DejaVuSans-105"/>
      <path d="M 32.171875 -5.078125 
Q 28.375 -14.84375 24.75 -17.8125 
Q 21.140625 -20.796875 15.09375 -20.796875 
L 7.90625 -20.796875 
L 7.90625 -13.28125 
L 13.1875 -13.28125 
Q 16.890625 -13.28125 18.9375 -11.515625 
Q 21 -9.765625 23.484375 -3.21875 
L 25.09375 0.875 
L 2.984375 54.6875 
L 12.5 54.6875 
L 29.59375 11.921875 
L 46.6875 54.6875 
L 56.203125 54.6875 
z
" id="DejaVuSans-121"/>
     </defs>
     <g style="fill:#2ca02c;" transform="translate(17.0375 268.532812)rotate(-90)scale(0.1 -0.1)">
      <use xlink:href="#DejaVuSans-77"/>
      <use x="86.279297" xlink:href="#DejaVuSans-111"/>
      <use x="147.460938" xlink:href="#DejaVuSans-100"/>
      <use x="210.9375" xlink:href="#DejaVuSans-117"/>
      <use x="274.316406" xlink:href="#DejaVuSans-108"/>
      <use x="302.099609" xlink:href="#DejaVuSans-97"/>
      <use x="363.378906" xlink:href="#DejaVuSans-114"/>
      <use x="404.492188" xlink:href="#DejaVuSans-105"/>
      <use x="432.275391" xlink:href="#DejaVuSans-116"/>
      <use x="471.484375" xlink:href="#DejaVuSans-121"/>
     </g>
    </g>
   </g>
   <g id="line2d_36">
    <path clip-path="url(#p19f35c5267)" d="M 52.382813 283.999219 
L 64.007813 270.481453 
L 75.632813 260.58703 
L 87.257813 253.198157 
L 98.882813 247.511617 
L 110.507813 242.996455 
L 122.132813 239.13977 
L 133.757813 235.602911 
L 145.382813 232.117018 
L 157.007812 228.508919 
L 168.632813 224.673576 
L 180.257813 220.581205 
L 191.882812 216.489856 
L 203.507813 212.236173 
L 215.132813 207.782705 
L 226.757812 203.147875 
L 238.382812 200.450997 
L 250.007813 200.171832 
L 261.632812 200.115716 
L 273.257812 200.067766 
L 284.882812 200.032467 
L 296.507812 200.011499 
L 308.132812 200.002297 
L 319.757812 199.999642 
L 331.382812 199.999219 
" style="fill:none;stroke:#2ca02c;stroke-linecap:square;stroke-width:1.5;"/>
   </g>
   <g id="patch_12">
    <path d="M 52.382813 288.199219 
L 52.382813 195.799219 
" style="fill:none;stroke:#000000;stroke-linecap:square;stroke-linejoin:miter;stroke-width:0.8;"/>
   </g>
   <g id="patch_13">
    <path d="M 331.382812 288.199219 
L 331.382812 195.799219 
" style="fill:none;stroke:#000000;stroke-linecap:square;stroke-linejoin:miter;stroke-width:0.8;"/>
   </g>
   <g id="patch_14">
    <path d="M 52.382813 288.199219 
L 331.382812 288.199219 
" style="fill:none;stroke:#000000;stroke-linecap:square;stroke-linejoin:miter;stroke-width:0.8;"/>
   </g>
   <g id="patch_15">
    <path d="M 52.382813 195.799219 
L 331.382812 195.799219 
" style="fill:none;stroke:#000000;stroke-linecap:square;stroke-linejoin:miter;stroke-width:0.8;"/>
   </g>
  </g>
  <g id="axes_4">
   <g id="matplotlib.axis_6">
    <g id="ytick_19">
     <g id="line2d_37">
      <defs>
       <path d="M 0 0 
L 3.5 0 
" id="m8d8bd16029" style="stroke:#d62728;stroke-width:0.8;"/>
      </defs>
      <g>
       <use style="fill:#d62728;stroke:#d62728;stroke-width:0.8;" x="331.382812" xlink:href="#m8d8bd16029" y="288.199219"/>
      </g>
     </g>
     <g id="text_39">
      <!-- 0.0 -->
      <g style="fill:#d62728;" transform="translate(338.382812 291.998437)scale(0.1 -0.1)">
       <use xlink:href="#DejaVuSans-48"/>
       <use x="63.623047" xlink:href="#DejaVuSans-46"/>
       <use x="95.410156" xlink:href="#DejaVuSans-48"/>
      </g>
     </g>
    </g>
    <g id="ytick_20">
     <g id="line2d_38">
      <g>
       <use style="fill:#d62728;stroke:#d62728;stroke-width:0.8;" x="331.382812" xlink:href="#m8d8bd16029" y="246.199219"/>
      </g>
     </g>
     <g id="text_40">
      <!-- 0.5 -->
      <g style="fill:#d62728;" transform="translate(338.382812 249.998437)scale(0.1 -0.1)">
       <use xlink:href="#DejaVuSans-48"/>
       <use x="63.623047" xlink:href="#DejaVuSans-46"/>
       <use x="95.410156" xlink:href="#DejaVuSans-53"/>
      </g>
     </g>
    </g>
    <g id="ytick_21">
     <g id="line2d_39">
      <g>
       <use style="fill:#d62728;stroke:#d62728;stroke-width:0.8;" x="331.382812" xlink:href="#m8d8bd16029" y="204.199219"/>
      </g>
     </g>
     <g id="text_41">
      <!-- 1.0 -->
      <g style="fill:#d62728;" transform="translate(338.382812 207.998437)scale(0.1 -0.1)">
       <use xlink:href="#DejaVuSans-49"/>
       <use x="63.623047" xlink:href="#DejaVuSans-46"/>
       <use x="95.410156" xlink:href="#DejaVuSans-48"/>
      </g>
     </g>
    </g>
    <g id="text_42">
     <!-- Mutual information -->
     <defs>
      <path d="M 54.890625 33.015625 
L 54.890625 0 
L 45.90625 0 
L 45.90625 32.71875 
Q 45.90625 40.484375 42.875 44.328125 
Q 39.84375 48.1875 33.796875 48.1875 
Q 26.515625 48.1875 22.3125 43.546875 
Q 18.109375 38.921875 18.109375 30.90625 
L 18.109375 0 
L 9.078125 0 
L 9.078125 54.6875 
L 18.109375 54.6875 
L 18.109375 46.1875 
Q 21.34375 51.125 25.703125 53.5625 
Q 30.078125 56 35.796875 56 
Q 45.21875 56 50.046875 50.171875 
Q 54.890625 44.34375 54.890625 33.015625 
z
" id="DejaVuSans-110"/>
     </defs>
     <g style="fill:#d62728;" transform="translate(365.884375 289.596875)rotate(-90)scale(0.1 -0.1)">
      <use xlink:href="#DejaVuSans-77"/>
      <use x="86.279297" xlink:href="#DejaVuSans-117"/>
      <use x="149.658203" xlink:href="#DejaVuSans-116"/>
      <use x="188.867188" xlink:href="#DejaVuSans-117"/>
      <use x="252.246094" xlink:href="#DejaVuSans-97"/>
      <use x="313.525391" xlink:href="#DejaVuSans-108"/>
      <use x="341.308594" xlink:href="#DejaVuSans-32"/>
      <use x="373.095703" xlink:href="#DejaVuSans-105"/>
      <use x="400.878906" xlink:href="#DejaVuSans-110"/>
      <use x="464.257812" xlink:href="#DejaVuSans-102"/>
      <use x="499.462891" xlink:href="#DejaVuSans-111"/>
      <use x="560.644531" xlink:href="#DejaVuSans-114"/>
      <use x="601.742188" xlink:href="#DejaVuSans-109"/>
      <use x="699.154297" xlink:href="#DejaVuSans-97"/>
      <use x="760.433594" xlink:href="#DejaVuSans-116"/>
      <use x="799.642578" xlink:href="#DejaVuSans-105"/>
      <use x="827.425781" xlink:href="#DejaVuSans-111"/>
      <use x="888.607422" xlink:href="#DejaVuSans-110"/>
     </g>
    </g>
   </g>
   <g id="line2d_40">
    <path clip-path="url(#p19f35c5267)" d="M 52.382813 204.199219 
L 64.007813 204.199219 
L 75.632813 204.199219 
L 87.257813 204.199219 
L 98.882813 204.199219 
L 110.507813 204.199219 
L 122.132813 204.199219 
L 133.757813 204.199219 
L 145.382813 204.199219 
L 157.007812 204.199219 
L 168.632813 204.199219 
L 180.257813 204.199219 
L 191.882812 204.199219 
L 203.507813 204.199219 
L 215.132813 204.199219 
L 226.757812 204.199219 
L 238.382812 204.199219 
L 250.007813 204.199219 
L 261.632812 204.199219 
L 273.257812 204.199219 
L 284.882812 204.199219 
L 296.507812 204.199219 
L 308.132812 204.199219 
L 319.757812 204.199219 
L 331.382812 204.199219 
" style="fill:none;stroke:#d62728;stroke-linecap:square;stroke-width:2;"/>
   </g>
   <g id="line2d_41">
    <path clip-path="url(#p19f35c5267)" d="M 52.382813 204.199219 
L 331.382812 204.199219 
" style="fill:none;stroke:#d62728;stroke-dasharray:3.7,1.6;stroke-dashoffset:0;"/>
   </g>
   <g id="patch_16">
    <path d="M 52.382813 288.199219 
L 52.382813 195.799219 
" style="fill:none;stroke:#000000;stroke-linecap:square;stroke-linejoin:miter;stroke-width:0.8;"/>
   </g>
   <g id="patch_17">
    <path d="M 331.382812 288.199219 
L 331.382812 195.799219 
" style="fill:none;stroke:#000000;stroke-linecap:square;stroke-linejoin:miter;stroke-width:0.8;"/>
   </g>
   <g id="patch_18">
    <path d="M 52.382813 288.199219 
L 331.382812 288.199219 
" style="fill:none;stroke:#000000;stroke-linecap:square;stroke-linejoin:miter;stroke-width:0.8;"/>
   </g>
   <g id="patch_19">
    <path d="M 52.382813 195.799219 
L 331.382812 195.799219 
" style="fill:none;stroke:#000000;stroke-linecap:square;stroke-linejoin:miter;stroke-width:0.8;"/>
   </g>
  </g>
 </g>
 <defs>
  <clipPath id="p62fc9b18a5">
   <rect height="184.8" width="279" x="52.382813" y="10.999219"/>
  </clipPath>
  <clipPath id="p19f35c5267">
   <rect height="92.4" width="279" x="52.382813" y="195.799219"/>
  </clipPath>
 </defs>
</svg>
